<?xml version="1.0" encoding="utf-8" standalone="no"?>
<!DOCTYPE svg PUBLIC "-//W3C//DTD SVG 1.1//EN"
  "http://www.w3.org/Graphics/SVG/1.1/DTD/svg11.dtd">
<svg xmlns:xlink="http://www.w3.org/1999/xlink" width="700.2pt" height="506.16pt" viewBox="0 0 700.2 506.16" xmlns="http://www.w3.org/2000/svg" version="1.1">
 <metadata>
  <rdf:RDF xmlns:dc="http://purl.org/dc/elements/1.1/" xmlns:cc="http://creativecommons.org/ns#" xmlns:rdf="http://www.w3.org/1999/02/22-rdf-syntax-ns#">
   <cc:Work>
    <dc:type rdf:resource="http://purl.org/dc/dcmitype/StillImage"/>
    <dc:date>2026-06-08T23:06:17.365947</dc:date>
    <dc:format>image/svg+xml</dc:format>
    <dc:creator>
     <cc:Agent>
      <dc:title>Matplotlib v3.10.9, https://matplotlib.org/</dc:title>
     </cc:Agent>
    </dc:creator>
   </cc:Work>
  </rdf:RDF>
 </metadata>
 <defs>
  <style type="text/css">*{stroke-linejoin: round; stroke-linecap: butt}</style>
 </defs>
 <g id="figure_1">
  <g id="patch_1">
   <path d="M 0 506.16 
L 700.2 506.16 
L 700.2 -0 
L 0 -0 
z
" style="fill: #ffffff"/>
  </g>
  <g id="axes_1">
   <g id="patch_2">
    <path d="M 24.39 214.965 
L 675.81 214.965 
L 675.81 10.53 
L 24.39 10.53 
z
" clip-path="url(#p82a0b5a068)" style="fill: #faf8f4; stroke: #ece7de; stroke-width: 0.8; stroke-linejoin: miter"/>
   </g>
   <g id="patch_3">
    <path d="M 24.39 339.705 
L 675.81 339.705 
L 675.81 220.509 
L 24.39 220.509 
z
" clip-path="url(#p82a0b5a068)" style="fill: #faf8f4; stroke: #ece7de; stroke-width: 0.8; stroke-linejoin: miter"/>
   </g>
   <g id="patch_4">
    <path d="M 24.39 484.542 
L 675.81 484.542 
L 675.81 359.802 
L 24.39 359.802 
z
" clip-path="url(#p82a0b5a068)" style="fill: #faf8f4; stroke: #ece7de; stroke-width: 0.8; stroke-linejoin: miter"/>
   </g>
   <g id="patch_5">
    <path d="M 24.39 214.965 
L 30.2805 214.965 
L 30.2805 10.53 
L 24.39 10.53 
z
" clip-path="url(#p82a0b5a068)" style="fill: #b86758"/>
   </g>
   <g id="patch_6">
    <path d="M 204.57 63.698801 
Q 204.57 65.971688 204.57 67.014738 
" clip-path="url(#p82a0b5a068)" style="fill: none; stroke: #b9b3a8; stroke-width: 1.1; stroke-linecap: round"/>
    <path d="M 206.77 62.614738 
L 204.57 67.014738 
L 202.37 62.614738 
z
" clip-path="url(#p82a0b5a068)" style="fill: #b9b3a8; stroke: #b9b3a8; stroke-width: 1.1; stroke-linecap: round"/>
   </g>
   <g id="patch_7">
    <path d="M 495.63 63.698801 
Q 495.63 65.971688 495.63 67.014738 
" clip-path="url(#p82a0b5a068)" style="fill: none; stroke: #b9b3a8; stroke-width: 1.1; stroke-linecap: round"/>
    <path d="M 497.83 62.614738 
L 495.63 67.014738 
L 493.43 62.614738 
z
" clip-path="url(#p82a0b5a068)" style="fill: #b9b3a8; stroke: #b9b3a8; stroke-width: 1.1; stroke-linecap: round"/>
   </g>
   <g id="patch_8">
    <path d="M 204.57 115.675493 
Q 204.57 130.41948 204.57 143.821826 
" clip-path="url(#p82a0b5a068)" style="fill: none; stroke: #b86758; stroke-width: 1.2; stroke-linecap: round"/>
    <path d="M 206.77 139.421826 
L 204.57 143.821826 
L 202.37 139.421826 
z
" clip-path="url(#p82a0b5a068)" style="fill: #b86758; stroke: #b86758; stroke-width: 1.2; stroke-linecap: round"/>
   </g>
   <g id="patch_9">
    <path d="M 495.63 115.675493 
Q 495.63 130.41948 495.63 143.821826 
" clip-path="url(#p82a0b5a068)" style="fill: none; stroke: #313e96; stroke-width: 1.2; stroke-linecap: round"/>
    <path d="M 497.83 139.421826 
L 495.63 143.821826 
L 493.43 139.421826 
z
" clip-path="url(#p82a0b5a068)" style="fill: #313e96; stroke: #313e96; stroke-width: 1.2; stroke-linecap: round"/>
   </g>
   <g id="patch_10">
    <path d="M 204.57 146.167493 
Q 204.57 160.91148 204.57 174.313826 
" clip-path="url(#p82a0b5a068)" style="fill: none; stroke: #b86758; stroke-width: 1.2; stroke-linecap: round"/>
    <path d="M 206.77 169.913826 
L 204.57 174.313826 
L 202.37 169.913826 
z
" clip-path="url(#p82a0b5a068)" style="fill: #b86758; stroke: #b86758; stroke-width: 1.2; stroke-linecap: round"/>
   </g>
   <g id="patch_11">
    <path d="M 495.63 146.167493 
Q 495.63 160.91148 495.63 174.313826 
" clip-path="url(#p82a0b5a068)" style="fill: none; stroke: #313e96; stroke-width: 1.2; stroke-linecap: round"/>
    <path d="M 497.83 169.913826 
L 495.63 174.313826 
L 493.43 169.913826 
z
" clip-path="url(#p82a0b5a068)" style="fill: #313e96; stroke: #313e96; stroke-width: 1.2; stroke-linecap: round"/>
   </g>
   <g id="patch_12">
    <path d="M 204.57 176.659493 
Q 204.57 191.40348 204.57 204.805826 
" clip-path="url(#p82a0b5a068)" style="fill: none; stroke: #b86758; stroke-width: 1.2; stroke-linecap: round"/>
    <path d="M 206.77 200.405826 
L 204.57 204.805826 
L 202.37 200.405826 
z
" clip-path="url(#p82a0b5a068)" style="fill: #b86758; stroke: #b86758; stroke-width: 1.2; stroke-linecap: round"/>
   </g>
   <g id="patch_13">
    <path d="M 495.63 176.659493 
Q 495.63 191.40348 495.63 204.805826 
" clip-path="url(#p82a0b5a068)" style="fill: none; stroke: #313e96; stroke-width: 1.2; stroke-linecap: round"/>
    <path d="M 497.83 200.405826 
L 495.63 204.805826 
L 493.43 200.405826 
z
" clip-path="url(#p82a0b5a068)" style="fill: #313e96; stroke: #313e96; stroke-width: 1.2; stroke-linecap: round"/>
   </g>
   <g id="patch_14">
    <path d="M 24.39 339.705 
L 30.2805 339.705 
L 30.2805 220.509 
L 24.39 220.509 
z
" clip-path="url(#p82a0b5a068)" style="fill: #313e96"/>
   </g>
   <g id="line2d_1">
    <path d="M 204.57 206.649 
L 204.57 213.579 
" clip-path="url(#p82a0b5a068)" style="fill: none; stroke: #b86758; stroke-width: 1.4; stroke-linecap: square"/>
   </g>
   <g id="line2d_2">
    <path d="M 495.63 206.649 
L 495.63 213.579 
" clip-path="url(#p82a0b5a068)" style="fill: none; stroke: #313e96; stroke-width: 1.4; stroke-linecap: square"/>
   </g>
   <g id="line2d_3">
    <path d="M 204.57 213.579 
L 350.1 213.579 
" clip-path="url(#p82a0b5a068)" style="fill: none; stroke: #b86758; stroke-width: 1.4; stroke-linecap: square"/>
   </g>
   <g id="line2d_4">
    <path d="M 350.1 213.579 
L 495.63 213.579 
" clip-path="url(#p82a0b5a068)" style="fill: none; stroke: #313e96; stroke-width: 1.4; stroke-linecap: square"/>
   </g>
   <g id="patch_15">
    <path d="M 350.1 214.076967 
Q 350.1 234.713333 350.1 253.784453 
" clip-path="url(#p82a0b5a068)" style="fill: none; stroke: #9e9a93; stroke-width: 1.4; stroke-linecap: round"/>
    <path d="M 352.3 249.384453 
L 350.1 253.784453 
L 347.9 249.384453 
z
" clip-path="url(#p82a0b5a068)" style="fill: #9e9a93; stroke: #9e9a93; stroke-width: 1.4; stroke-linecap: round"/>
   </g>
   <g id="patch_16">
    <path d="M 222.394955 291.195 
Q 232.289819 291.195 240.843043 291.195 
" clip-path="url(#p82a0b5a068)" style="fill: none; stroke: #b9b3a8; stroke-width: 1.2; stroke-linecap: round"/>
    <path d="M 236.443043 288.995 
L 240.843043 291.195 
L 236.443043 293.395 
z
" clip-path="url(#p82a0b5a068)" style="fill: #b9b3a8; stroke: #b9b3a8; stroke-width: 1.2; stroke-linecap: round"/>
   </g>
   <g id="patch_17">
    <path d="M 458.014955 291.195 
Q 467.909819 291.195 476.463043 291.195 
" clip-path="url(#p82a0b5a068)" style="fill: none; stroke: #b9b3a8; stroke-width: 1.2; stroke-linecap: round"/>
    <path d="M 472.063043 288.995 
L 476.463043 291.195 
L 472.063043 293.395 
z
" clip-path="url(#p82a0b5a068)" style="fill: #b9b3a8; stroke: #b9b3a8; stroke-width: 1.2; stroke-linecap: round"/>
   </g>
   <g id="patch_18">
    <path d="M 350.1 326.341994 
Q 350.1 342.130376 350.1 356.353511 
" clip-path="url(#p82a0b5a068)" style="fill: none; stroke: #9e9a93; stroke-width: 1.4; stroke-linecap: round"/>
    <path d="M 352.3 351.953511 
L 350.1 356.353511 
L 347.9 351.953511 
z
" clip-path="url(#p82a0b5a068)" style="fill: #9e9a93; stroke: #9e9a93; stroke-width: 1.4; stroke-linecap: round"/>
   </g>
   <g id="patch_19">
    <path d="M 24.39 484.542 
L 30.2805 484.542 
L 30.2805 359.802 
L 24.39 359.802 
z
" clip-path="url(#p82a0b5a068)" style="fill: #9e9a93"/>
   </g>
   <g id="patch_20">
    <path d="M 65.277 63.198 
L 634.923 63.198 
Q 641.16 63.198 641.16 56.961 
L 641.16 41.715 
Q 641.16 35.478 634.923 35.478 
L 65.277 35.478 
Q 59.04 35.478 59.04 41.715 
L 59.04 56.961 
Q 59.04 63.198 65.277 63.198 
z
" clip-path="url(#p82a0b5a068)" style="fill: #ffffff; stroke: #b9b3a8; stroke-linejoin: miter"/>
   </g>
   <g id="patch_21">
    <path d="M 72.207 115.173 
L 336.933 115.173 
Q 343.17 115.173 343.17 108.936 
L 343.17 98.541 
Q 343.17 92.304 336.933 92.304 
L 72.207 92.304 
Q 65.97 92.304 65.97 98.541 
L 65.97 108.936 
Q 65.97 115.173 72.207 115.173 
z
" clip-path="url(#p82a0b5a068)" style="fill: #ffffff; stroke: #b86758; stroke-linejoin: miter"/>
   </g>
   <g id="patch_22">
    <path d="M 363.267 115.173 
L 627.993 115.173 
Q 634.23 115.173 634.23 108.936 
L 634.23 98.541 
Q 634.23 92.304 627.993 92.304 
L 363.267 92.304 
Q 357.03 92.304 357.03 98.541 
L 357.03 108.936 
Q 357.03 115.173 363.267 115.173 
z
" clip-path="url(#p82a0b5a068)" style="fill: #ffffff; stroke: #313e96; stroke-linejoin: miter"/>
   </g>
   <g id="patch_23">
    <path d="M 72.207 145.665 
L 336.933 145.665 
Q 343.17 145.665 343.17 139.428 
L 343.17 129.033 
Q 343.17 122.796 336.933 122.796 
L 72.207 122.796 
Q 65.97 122.796 65.97 129.033 
L 65.97 139.428 
Q 65.97 145.665 72.207 145.665 
z
" clip-path="url(#p82a0b5a068)" style="fill: #ffffff; stroke: #b86758; stroke-linejoin: miter"/>
   </g>
   <g id="patch_24">
    <path d="M 363.267 145.665 
L 627.993 145.665 
Q 634.23 145.665 634.23 139.428 
L 634.23 129.033 
Q 634.23 122.796 627.993 122.796 
L 363.267 122.796 
Q 357.03 122.796 357.03 129.033 
L 357.03 139.428 
Q 357.03 145.665 363.267 145.665 
z
" clip-path="url(#p82a0b5a068)" style="fill: #ffffff; stroke: #313e96; stroke-linejoin: miter"/>
   </g>
   <g id="patch_25">
    <path d="M 72.207 176.157 
L 336.933 176.157 
Q 343.17 176.157 343.17 169.92 
L 343.17 159.525 
Q 343.17 153.288 336.933 153.288 
L 72.207 153.288 
Q 65.97 153.288 65.97 159.525 
L 65.97 169.92 
Q 65.97 176.157 72.207 176.157 
z
" clip-path="url(#p82a0b5a068)" style="fill: #ffffff; stroke: #b86758; stroke-linejoin: miter"/>
   </g>
   <g id="patch_26">
    <path d="M 363.267 176.157 
L 627.993 176.157 
Q 634.23 176.157 634.23 169.92 
L 634.23 159.525 
Q 634.23 153.288 627.993 153.288 
L 363.267 153.288 
Q 357.03 153.288 357.03 159.525 
L 357.03 169.92 
Q 357.03 176.157 363.267 176.157 
z
" clip-path="url(#p82a0b5a068)" style="fill: #ffffff; stroke: #313e96; stroke-linejoin: miter"/>
   </g>
   <g id="patch_27">
    <path d="M 72.207 206.649 
L 336.933 206.649 
Q 343.17 206.649 343.17 200.412 
L 343.17 190.017 
Q 343.17 183.78 336.933 183.78 
L 72.207 183.78 
Q 65.97 183.78 65.97 190.017 
L 65.97 200.412 
Q 65.97 206.649 72.207 206.649 
z
" clip-path="url(#p82a0b5a068)" style="fill: #f2dfdb; stroke: #b86758; stroke-width: 1.6; stroke-linejoin: miter"/>
   </g>
   <g id="patch_28">
    <path d="M 363.267 206.649 
L 627.993 206.649 
Q 634.23 206.649 634.23 200.412 
L 634.23 190.017 
Q 634.23 183.78 627.993 183.78 
L 363.267 183.78 
Q 357.03 183.78 357.03 190.017 
L 357.03 200.412 
Q 357.03 206.649 363.267 206.649 
z
" clip-path="url(#p82a0b5a068)" style="fill: #d9dcf1; stroke: #313e96; stroke-width: 1.6; stroke-linejoin: miter"/>
   </g>
   <g id="patch_29">
    <path d="M 61.812 325.845 
L 215.658 325.845 
Q 221.895 325.845 221.895 319.608 
L 221.895 262.782 
Q 221.895 256.545 215.658 256.545 
L 61.812 256.545 
Q 55.575 256.545 55.575 262.782 
L 55.575 319.608 
Q 55.575 325.845 61.812 325.845 
z
" clip-path="url(#p82a0b5a068)" style="fill: #fbfaf8; stroke: #b9b3a8; stroke-width: 1.1; stroke-linejoin: miter"/>
   </g>
   <g id="patch_30">
    <path d="M 248.922 325.845 
L 451.278 325.845 
Q 457.515 325.845 457.515 319.608 
L 457.515 262.782 
Q 457.515 256.545 451.278 256.545 
L 248.922 256.545 
Q 242.685 256.545 242.685 262.782 
L 242.685 319.608 
Q 242.685 325.845 248.922 325.845 
z
" clip-path="url(#p82a0b5a068)" style="fill: #ffffff; stroke: #b9b3a8; stroke-width: 1.1; stroke-linejoin: miter"/>
   </g>
   <g id="patch_31">
    <path d="M 484.542 325.845 
L 638.388 325.845 
Q 644.625 325.845 644.625 319.608 
L 644.625 262.782 
Q 644.625 256.545 638.388 256.545 
L 484.542 256.545 
Q 478.305 256.545 478.305 262.782 
L 478.305 319.608 
Q 478.305 325.845 484.542 325.845 
z
" clip-path="url(#p82a0b5a068)" style="fill: #fbfaf8; stroke: #b9b3a8; stroke-width: 1.1; stroke-linejoin: miter"/>
   </g>
   <g id="patch_32">
    <path d="M 61.812 470.682 
L 232.983 470.682 
Q 239.22 470.682 239.22 464.445 
L 239.22 399.303 
Q 239.22 393.066 232.983 393.066 
L 61.812 393.066 
Q 55.575 393.066 55.575 399.303 
L 55.575 464.445 
Q 55.575 470.682 61.812 470.682 
z
" clip-path="url(#p82a0b5a068)" style="fill: #fbfaf8; stroke: #b9b3a8; stroke-width: 1.1; stroke-linejoin: miter"/>
   </g>
   <g id="patch_33">
    <path d="M 264.5145 470.682 
L 435.6855 470.682 
Q 441.9225 470.682 441.9225 464.445 
L 441.9225 399.303 
Q 441.9225 393.066 435.6855 393.066 
L 264.5145 393.066 
Q 258.2775 393.066 258.2775 399.303 
L 258.2775 464.445 
Q 258.2775 470.682 264.5145 470.682 
z
" clip-path="url(#p82a0b5a068)" style="fill: #fbfaf8; stroke: #b9b3a8; stroke-width: 1.1; stroke-linejoin: miter"/>
   </g>
   <g id="patch_34">
    <path d="M 467.217 470.682 
L 638.388 470.682 
Q 644.625 470.682 644.625 464.445 
L 644.625 399.303 
Q 644.625 393.066 638.388 393.066 
L 467.217 393.066 
Q 460.98 393.066 460.98 399.303 
L 460.98 464.445 
Q 460.98 470.682 467.217 470.682 
z
" clip-path="url(#p82a0b5a068)" style="fill: #fbfaf8; stroke: #b9b3a8; stroke-width: 1.1; stroke-linejoin: miter"/>
   </g>
   <g id="patch_35">
    <path d="M 73.593 85.374 
L 335.547 85.374 
Q 343.17 85.374 343.17 77.751 
L 343.17 76.365 
Q 343.17 68.742 335.547 68.742 
L 73.593 68.742 
Q 65.97 68.742 65.97 76.365 
L 65.97 77.751 
Q 65.97 85.374 73.593 85.374 
z
" clip-path="url(#p82a0b5a068)" style="fill: #b86758; stroke: #b86758; stroke-width: 1.1; stroke-linejoin: miter"/>
   </g>
   <g id="patch_36">
    <path d="M 364.653 85.374 
L 626.607 85.374 
Q 634.23 85.374 634.23 77.751 
L 634.23 76.365 
Q 634.23 68.742 626.607 68.742 
L 364.653 68.742 
Q 357.03 68.742 357.03 76.365 
L 357.03 77.751 
Q 357.03 85.374 364.653 85.374 
z
" clip-path="url(#p82a0b5a068)" style="fill: #313e96; stroke: #313e96; stroke-width: 1.1; stroke-linejoin: miter"/>
   </g>
   <g id="patch_37">
    <path d="M 264.861 291.888 
L 435.339 291.888 
Q 440.19 291.888 440.19 287.037 
L 440.19 278.028 
Q 440.19 273.177 435.339 273.177 
L 264.861 273.177 
Q 260.01 273.177 260.01 278.028 
L 260.01 287.037 
Q 260.01 291.888 264.861 291.888 
z
" clip-path="url(#p82a0b5a068)" style="fill: #f2dfdb; stroke: #b86758; stroke-width: 1.1; stroke-linejoin: miter"/>
   </g>
   <g id="patch_38">
    <path d="M 264.861 316.143 
L 435.339 316.143 
Q 440.19 316.143 440.19 311.292 
L 440.19 302.283 
Q 440.19 297.432 435.339 297.432 
L 264.861 297.432 
Q 260.01 297.432 260.01 302.283 
L 260.01 311.292 
Q 260.01 316.143 264.861 316.143 
z
" clip-path="url(#p82a0b5a068)" style="fill: #d9dcf1; stroke: #313e96; stroke-width: 1.1; stroke-linejoin: miter"/>
   </g>
   <g id="text_1">
    <text style="font-size: 6.9px; font-family: 'DejaVu Sans', sans-serif; text-anchor: middle; fill: #2a251f" x="350.1" y="51.241969" transform="rotate(-0 350.1 51.241969)">Shared examination blueprint: urology nursing syllabus, textbooks &amp; clinical guidelines, case scenarios, item banks</text>
   </g>
   <g id="text_2">
    <text style="font-size: 6.6px; font-family: 'DejaVu Sans', sans-serif; text-anchor: middle; fill: #3e3e3e" x="350.1" y="61.554188" transform="rotate(-0 350.1 61.554188)">matched item types across arms  (single best answer · multiple response · case analysis · total score 100)</text>
   </g>
   <g id="text_3">
    <text style="font-weight: 700; font-size: 8px; font-family: 'DejaVu Sans', sans-serif; text-anchor: middle; fill: #ffffff" x="204.57" y="79.2655" transform="rotate(-0 204.57 79.2655)">MAS-based AI examination</text>
   </g>
   <g id="text_4">
    <text style="font-weight: 700; font-size: 8px; font-family: 'DejaVu Sans', sans-serif; text-anchor: middle; fill: #ffffff" x="495.63" y="79.2655" transform="rotate(-0 495.63 79.2655)">Expert-developed examination</text>
   </g>
   <g id="text_5">
    <text style="font-size: 6.9px; font-family: 'DejaVu Sans', sans-serif; fill: #3e3e3e" transform="translate(168.704016 101.464648)">Structured prompt +</text>
    <text style="font-size: 6.9px; font-family: 'DejaVu Sans', sans-serif; fill: #3e3e3e" transform="translate(159.723234 109.820289)">curated knowledge inputs</text>
   </g>
   <g id="text_6">
    <text style="font-size: 6.9px; font-family: 'DejaVu Sans', sans-serif; fill: #3e3e3e" transform="translate(464.268422 101.464648)">2-3 senior urology</text>
    <text style="font-size: 6.9px; font-family: 'DejaVu Sans', sans-serif; fill: #3e3e3e" transform="translate(467.632711 109.820289)">nurse educators</text>
   </g>
   <g id="text_7">
    <text style="font-size: 6.9px; font-family: 'DejaVu Sans', sans-serif; fill: #3e3e3e" transform="translate(155.012906 131.956648)">MAS-based drafting, revision</text>
    <text style="font-size: 6.9px; font-family: 'DejaVu Sans', sans-serif; fill: #3e3e3e" transform="translate(164.727891 140.312289)">&amp; answer-key checking</text>
   </g>
   <g id="text_8">
    <text style="font-size: 6.9px; font-family: 'DejaVu Sans', sans-serif; fill: #3e3e3e" transform="translate(461.594672 131.956648)">Same blueprint and</text>
    <text style="font-size: 6.9px; font-family: 'DejaVu Sans', sans-serif; fill: #3e3e3e" transform="translate(465.306656 140.312289)">content coverage</text>
   </g>
   <g id="text_9">
    <text style="font-size: 6.9px; font-family: 'DejaVu Sans', sans-serif; fill: #3e3e3e" transform="translate(151.869094 162.448648)">Independent factual screening</text>
    <text style="font-size: 6.9px; font-family: 'DejaVu Sans', sans-serif; fill: #3e3e3e" transform="translate(169.749797 170.804289)">by 1 nurse educator</text>
   </g>
   <g id="text_10">
    <text style="font-size: 6.9px; font-family: 'DejaVu Sans', sans-serif; fill: #3e3e3e" transform="translate(454.78793 162.448648)">Consensus drafting and</text>
    <text style="font-size: 6.9px; font-family: 'DejaVu Sans', sans-serif; fill: #3e3e3e" transform="translate(469.888148 170.804289)">internal review</text>
   </g>
   <g id="text_11">
    <text style="font-weight: 700; font-size: 6.9px; font-family: 'DejaVu Sans', sans-serif; text-anchor: middle; fill: #2a251f" x="204.57" y="197.091516" transform="rotate(-0 204.57 197.091516)">Final AI-generated examination</text>
   </g>
   <g id="text_12">
    <text style="font-weight: 700; font-size: 6.9px; font-family: 'DejaVu Sans', sans-serif; text-anchor: middle; fill: #2a251f" x="495.63" y="197.118469" transform="rotate(-0 495.63 197.118469)">Final expert-developed examination</text>
   </g>
   <g id="text_13">
    <text style="font-weight: 700; font-size: 7.8px; font-family: 'DejaVu Sans', sans-serif; text-anchor: middle; fill: #2a251f" x="138.735" y="274.252781" transform="rotate(-0 138.735 274.252781)">Participants</text>
   </g>
   <g id="text_14">
    <text style="font-size: 6.7px; font-family: 'DejaVu Sans', sans-serif; fill: #3e3e3e" transform="translate(67.356 288.662953)">•  41 registered urology</text>
    <text style="font-size: 6.7px; font-family: 'DejaVu Sans', sans-serif; fill: #3e3e3e" transform="translate(67.356 297.692773)">    specialty nurses</text>
    <text style="font-size: 6.7px; font-family: 'DejaVu Sans', sans-serif; fill: #3e3e3e" transform="translate(67.356 306.722594)">•  Clinical experience ≥ 6 months</text>
    <text style="font-size: 6.7px; font-family: 'DejaVu Sans', sans-serif; fill: #3e3e3e" transform="translate(67.356 315.752414)">•  Written informed consent</text>
    <text style="font-size: 6.7px; font-family: 'DejaVu Sans', sans-serif; fill: #3e3e3e" transform="translate(67.356 324.782234)">•  Randomized 1:1 to two sequences</text>
   </g>
   <g id="text_15">
    <text style="font-weight: 700; font-size: 7.8px; font-family: 'DejaVu Sans', sans-serif; text-anchor: middle; fill: #2a251f" x="350.1" y="269.785313" transform="rotate(-0 350.1 269.785313)">Randomized two-sequence allocation</text>
   </g>
   <g id="text_16">
    <text style="font-size: 6.9px; font-family: 'DejaVu Sans', sans-serif; text-anchor: middle; fill: #2a251f" x="350.1" y="284.436469" transform="rotate(-0 350.1 284.436469)">Sequence A  ·  AI-generated exam (n = 21)</text>
   </g>
   <g id="text_17">
    <text style="font-size: 6.9px; font-family: 'DejaVu Sans', sans-serif; text-anchor: middle; fill: #2a251f" x="350.1" y="308.691469" transform="rotate(-0 350.1 308.691469)">Sequence B  ·  Expert-developed exam (n = 20)</text>
   </g>
   <g id="text_18">
    <text style="font-weight: 700; font-size: 7.8px; font-family: 'DejaVu Sans', sans-serif; text-anchor: middle; fill: #2a251f" x="561.465" y="274.252781" transform="rotate(-0 561.465 274.252781)">Standardized administration</text>
   </g>
   <g id="text_19">
    <text style="font-size: 6.7px; font-family: 'DejaVu Sans', sans-serif; fill: #3e3e3e" transform="translate(490.086 288.662953)">•  Standardized classroom</text>
    <text style="font-size: 6.7px; font-family: 'DejaVu Sans', sans-serif; fill: #3e3e3e" transform="translate(490.086 297.692773)">    setting</text>
    <text style="font-size: 6.7px; font-family: 'DejaVu Sans', sans-serif; fill: #3e3e3e" transform="translate(490.086 306.722594)">•  Closed-book administration</text>
    <text style="font-size: 6.7px; font-family: 'DejaVu Sans', sans-serif; fill: #3e3e3e" transform="translate(490.086 315.752414)">•  90 minutes per examination</text>
   </g>
   <g id="text_20">
    <text style="font-weight: 700; font-size: 7.8px; font-family: 'DejaVu Sans', sans-serif; text-anchor: middle; fill: #2a251f" x="147.3975" y="410.773781" transform="rotate(-0 147.3975 410.773781)">Scoring</text>
   </g>
   <g id="text_21">
    <text style="font-size: 6.7px; font-family: 'DejaVu Sans', sans-serif; fill: #3e3e3e" transform="translate(67.356 425.183953)">•  Objective items: automated</text>
    <text style="font-size: 6.7px; font-family: 'DejaVu Sans', sans-serif; fill: #3e3e3e" transform="translate(67.356 434.213773)">•  Case items: 2 blinded</text>
    <text style="font-size: 6.7px; font-family: 'DejaVu Sans', sans-serif; fill: #3e3e3e" transform="translate(67.356 443.243594)">    nurse raters</text>
    <text style="font-size: 6.7px; font-family: 'DejaVu Sans', sans-serif; fill: #3e3e3e" transform="translate(67.356 452.273414)">•  Third-rater adjudication</text>
    <text style="font-size: 6.7px; font-family: 'DejaVu Sans', sans-serif; fill: #3e3e3e" transform="translate(67.356 461.303234)">    for disagreements</text>
   </g>
   <g id="text_22">
    <text style="font-weight: 700; font-size: 7.8px; font-family: 'DejaVu Sans', sans-serif; text-anchor: middle; fill: #2a251f" x="350.1" y="410.773781" transform="rotate(-0 350.1 410.773781)">Question quality</text>
   </g>
   <g id="text_23">
    <text style="font-size: 6.7px; font-family: 'DejaVu Sans', sans-serif; fill: #3e3e3e" transform="translate(270.0585 425.183953)">•  Total score &amp; score by item type</text>
    <text style="font-size: 6.7px; font-family: 'DejaVu Sans', sans-serif; fill: #3e3e3e" transform="translate(270.0585 434.213773)">•  Difficulty (P) &amp; discrimination (D)</text>
    <text style="font-size: 6.7px; font-family: 'DejaVu Sans', sans-serif; fill: #3e3e3e" transform="translate(270.0585 443.243594)">•  Internal consistency (Cronbach α)</text>
    <text style="font-size: 6.7px; font-family: 'DejaVu Sans', sans-serif; fill: #3e3e3e" transform="translate(270.0585 452.273414)">•  Correlation between the two exams</text>
   </g>
   <g id="text_24">
    <text style="font-weight: 700; font-size: 7.8px; font-family: 'DejaVu Sans', sans-serif; text-anchor: middle; fill: #2a251f" x="552.8025" y="410.773781" transform="rotate(-0 552.8025 410.773781)">Analysis &amp; outputs</text>
   </g>
   <g id="text_25">
    <text style="font-size: 6.7px; font-family: 'DejaVu Sans', sans-serif; fill: #3e3e3e" transform="translate(472.761 425.183953)">•  Difference in total score</text>
    <text style="font-size: 6.7px; font-family: 'DejaVu Sans', sans-serif; fill: #3e3e3e" transform="translate(472.761 434.213773)">•  Completion time &amp; inter-rater</text>
    <text style="font-size: 6.7px; font-family: 'DejaVu Sans', sans-serif; fill: #3e3e3e" transform="translate(472.761 443.243594)">    agreement</text>
    <text style="font-size: 6.7px; font-family: 'DejaVu Sans', sans-serif; fill: #3e3e3e" transform="translate(472.761 452.273414)">•  Group comparison / crossover</text>
    <text style="font-size: 6.7px; font-family: 'DejaVu Sans', sans-serif; fill: #3e3e3e" transform="translate(472.761 461.303234)">•  Feasibility &amp; equivalence of AI</text>
   </g>
   <g id="patch_39">
    <path d="M 51.417 34.4385 
C 54.081893 34.4385 56.637998 33.379727 58.522362 31.495362 
C 60.406727 29.610998 61.4655 27.054893 61.4655 24.39 
C 61.4655 21.725107 60.406727 19.169002 58.522362 17.284638 
C 56.637998 15.400273 54.081893 14.3415 51.417 14.3415 
C 48.752107 14.3415 46.196002 15.400273 44.311638 17.284638 
C 42.427273 19.169002 41.3685 21.725107 41.3685 24.39 
C 41.3685 27.054893 42.427273 29.610998 44.311638 31.495362 
C 46.196002 33.379727 48.752107 34.4385 51.417 34.4385 
z
" clip-path="url(#p82a0b5a068)" style="fill: #b86758; stroke: #b86758; stroke-linejoin: miter"/>
   </g>
   <g id="patch_40">
    <path d="M 51.417 244.4175 
C 54.081893 244.4175 56.637998 243.358727 58.522362 241.474362 
C 60.406727 239.589998 61.4655 237.033893 61.4655 234.369 
C 61.4655 231.704107 60.406727 229.148002 58.522362 227.263638 
C 56.637998 225.379273 54.081893 224.3205 51.417 224.3205 
C 48.752107 224.3205 46.196002 225.379273 44.311638 227.263638 
C 42.427273 229.148002 41.3685 231.704107 41.3685 234.369 
C 41.3685 237.033893 42.427273 239.589998 44.311638 241.474362 
C 46.196002 243.358727 48.752107 244.4175 51.417 244.4175 
z
" clip-path="url(#p82a0b5a068)" style="fill: #313e96; stroke: #313e96; stroke-linejoin: miter"/>
   </g>
   <g id="patch_41">
    <path d="M 51.417 383.7105 
C 54.081893 383.7105 56.637998 382.651727 58.522362 380.767362 
C 60.406727 378.882998 61.4655 376.326893 61.4655 373.662 
C 61.4655 370.997107 60.406727 368.441002 58.522362 366.556638 
C 56.637998 364.672273 54.081893 363.6135 51.417 363.6135 
C 48.752107 363.6135 46.196002 364.672273 44.311638 366.556638 
C 42.427273 368.441002 41.3685 370.997107 41.3685 373.662 
C 41.3685 376.326893 42.427273 378.882998 44.311638 380.767362 
C 46.196002 382.651727 48.752107 383.7105 51.417 383.7105 
z
" clip-path="url(#p82a0b5a068)" style="fill: #9e9a93; stroke: #9e9a93; stroke-linejoin: miter"/>
   </g>
   <g id="text_26">
    <text style="font-weight: 700; font-size: 10px; font-family: 'DejaVu Sans', sans-serif; text-anchor: middle; fill: #ffffff" x="51.417" y="27.149375" transform="rotate(-0 51.417 27.149375)">1</text>
   </g>
   <g id="text_27">
    <text style="font-weight: 700; font-size: 9.5px; font-family: 'DejaVu Sans', sans-serif; text-anchor: start; fill: #2a251f" x="70.128" y="27.011406" transform="rotate(-0 70.128 27.011406)">Examination development</text>
   </g>
   <g id="text_28">
    <text style="font-weight: 700; font-size: 10px; font-family: 'DejaVu Sans', sans-serif; text-anchor: middle; fill: #ffffff" x="51.417" y="237.128375" transform="rotate(-0 51.417 237.128375)">2</text>
   </g>
   <g id="text_29">
    <text style="font-weight: 700; font-size: 9.5px; font-family: 'DejaVu Sans', sans-serif; text-anchor: start; fill: #2a251f" x="70.128" y="236.990406" transform="rotate(-0 70.128 236.990406)">Prospective crossover administration</text>
   </g>
   <g id="text_30">
    <text style="font-weight: 700; font-size: 10px; font-family: 'DejaVu Sans', sans-serif; text-anchor: middle; fill: #ffffff" x="51.417" y="376.421375" transform="rotate(-0 51.417 376.421375)">3</text>
   </g>
   <g id="text_31">
    <text style="font-weight: 700; font-size: 9.5px; font-family: 'DejaVu Sans', sans-serif; text-anchor: start; fill: #2a251f" x="70.128" y="376.246297" transform="rotate(-0 70.128 376.246297)">Scoring, psychometrics &amp; statistical analysis</text>
   </g>
  </g>
 </g>
 <defs>
  <clipPath id="p82a0b5a068">
   <rect x="3.6" y="3.6" width="693" height="498.96"/>
  </clipPath>
 </defs>
</svg>
